<svg xmlns="http://www.w3.org/2000/svg" width="127" height="129" viewBox="0 0 127 129">
    <defs>
        <linearGradient id="prefix__a" x1="79.666%" x2="-13.053%" y1="95.235%" y2="37.499%">
            <stop offset="0%" stop-color="#A81D32"/>
            <stop offset="100%" stop-color="#C70E31"/>
        </linearGradient>
        <linearGradient id="prefix__b" x1=".029%" x2="100%" y1="49.982%" y2="49.982%">
            <stop offset="0%" stop-color="#C41031"/>
            <stop offset="100%" stop-color="#A81D32"/>
        </linearGradient>
    </defs>
    <g fill="none" fill-rule="evenodd">
        <path fill="url(#prefix__a)" fill-rule="nonzero" d="M119.07 69.41L118.98 69.64 118.72 70.34 118.69 70.44 109.67 94.65 109.45 95.27 109.44 95.27 109.44 95.29 105.57 105.68 102.74 113.28 101.73 115.98 97.1 128.43 0 128.43 0 0 25.31 14.76 28.91 16.85 32.57 18.99 32.8 19.12 53.08 30.94 71.63 41.76 76.8 44.77 102.16 59.55 118.81 69.26 118.83 69.27z"/>
        <circle cx="64.15" cy="63.93" r="58.81" fill="#FFF" fill-rule="nonzero"/>
        <path fill="#C70E31" fill-rule="nonzero" d="M119.07 63.93c0 1.89-.1 3.76-.28 5.6-.872 8.574-3.757 16.822-8.42 24.07-.36.56-.74 1.12-1.13 1.67-15.485 22.269-44.909 29.898-69.264 17.96C15.621 101.29 3.63 73.36 11.747 47.48 19.865 21.598 45.661 5.52 72.471 9.63c26.81 4.11 46.606 27.176 46.599 54.3z" opacity=".1"/>
        <path fill="#C70E31" fill-rule="nonzero" d="M64.15 5.12c32.48 0 58.81 26.33 58.81 58.81 0 32.48-26.33 58.81-58.81 58.81-32.48 0-58.81-26.33-58.81-58.81 0-32.48 26.33-58.81 58.81-58.81zm0-3.88C38.793 1.236 15.931 16.507 6.225 39.933c-9.707 23.425-4.345 50.39 13.583 68.322 17.928 17.931 44.893 23.297 68.32 13.594 23.427-9.703 38.702-32.562 38.702-57.919-.039-34.603-28.077-62.646-62.68-62.69z"/>
        <path d="M101.73 116l-4.63 12.43H0V42l2.81-.58 3.07-.64 4.61-1 4.79-1h.17c-4.063 7.762-6.2 16.388-6.23 25.15v1.42c.403 21.585 13.422 40.929 33.267 49.43 19.844 8.5 42.83 4.58 58.733-10.02l.23 4.66.22 4.71.06 1.87z"/>
        <path fill="url(#prefix__b)" fill-rule="nonzero" d="M76.8 44.34v50.93h32.74l.83-1.67 5.48-11.11c1.507-4.197 2.494-8.563 2.94-13L76.8 44.34zm-.86 54.78L71.63 97V27.07L15.45 38.79C3.088 62.42 9.484 91.514 30.616 107.78c21.131 16.267 50.894 15.006 70.574-2.99l-.27-5.64-24.98-.03z"/>
        <path d="M119.07 64.21c0 1.8-.09 3.57-.26 5.33-.396 4.178-1.275 8.295-2.62 12.27-1.547 4.598-3.699 8.97-6.4 13l-.33.49c-15.355 22.405-44.78 30.223-69.232 18.394-24.45-11.829-36.585-39.753-28.549-65.699C19.715 22.05 45.51 5.872 72.365 9.935c26.857 4.062 46.712 27.143 46.715 54.305l-.01-.03z"/>
    </g>
</svg>
