<svg xmlns="http://www.w3.org/2000/svg" width="49" height="40" viewBox="0 0 49 40">
    <defs>
        <linearGradient id="prefix__a" x1="0%" x2="100.082%" y1="50%" y2="50%">
            <stop offset="0%" stop-color="#6F5199"/>
            <stop offset="33%" stop-color="#8C4382"/>
            <stop offset="100%" stop-color="#D12149"/>
        </linearGradient>
        <linearGradient id="prefix__b" x1="-.006%" x2="100.007%" y1="50.02%" y2="50.02%">
            <stop offset="0%" stop-color="#6F5199"/>
            <stop offset="33%" stop-color="#8C4382"/>
            <stop offset="100%" stop-color="#D12149"/>
        </linearGradient>
    </defs>
    <g fill="none">
        <path fill="url(#prefix__a)" d="M46.48 40H0V2.17C0 .972.972 0 2.17 0c1.195.006 2.16.975 2.16 2.17v30.39c.005 1.715 1.395 3.105 3.11 3.11h39c1.195 0 2.164.965 2.17 2.16 0 1.183-.947 2.148-2.13 2.17z"/>
        <path fill="url(#prefix__b)" d="M12.68 30.85c-.43 0-.843-.17-1.15-.47l-3.31-3.31c-.584-.583-.64-1.51-.13-2.16l9.53-12.17c.274-.355.683-.58 1.13-.62.443-.048.887.094 1.22.39l4.24 3.64 2.6-3.73-3.43-3.33c-.474-.466-.62-1.171-.37-1.787.25-.615.846-1.02 1.51-1.023h15.15c.479 0 .934.212 1.24.58.31.36.45.839.38 1.31l-2.46 15.71c-.096.638-.558 1.16-1.18 1.33-.608.145-1.245-.064-1.65-.54l-3.39-4.07-6.71 8c-.296.35-.725.56-1.183.578-.458.02-.903-.154-1.227-.478L19 24.25l-5.08 6c-.294.351-.722.562-1.18.58l-.06.02zM12 26.24c.138.152.334.239.54.239.206 0 .402-.087.54-.239l4.56-5.41c.291-.349.716-.56 1.17-.58.457-.02.902.15 1.23.47l3.25 3.24c.316.31.747.475 1.189.454.442-.021.856-.225 1.141-.564L31.37 17c.309-.372.766-.588 1.25-.59.484.01.94.23 1.25.6l1.5 1.83c.131.19.367.278.59.22.224-.058.388-.25.41-.48l1.31-8.38c.03-.16-.013-.324-.118-.448s-.26-.195-.422-.192H29.9c-.226-.001-.43.136-.513.346-.084.21-.031.449.133.604l.56.54c.568.559.652 1.444.2 2.1l-4.41 6.35c-.267.38-.68.63-1.14.69-.458.059-.92-.08-1.27-.38l-3.2-2.75c-.292-.239-.666-.352-1.041-.315-.376.038-.72.223-.959.515l-6.27 8c-.254.279-.25.706.01.98z"/>
    </g>
</svg>
