<svg xmlns="http://www.w3.org/2000/svg" width="89" height="71" viewBox="0 0 89 71">
    <defs>
        <linearGradient id="prefix__a" x1="0%" x2="99.977%" y1="50%" y2="50%">
            <stop offset="0%" stop-color="#6F5199"/>
            <stop offset="33%" stop-color="#8C4382"/>
            <stop offset="100%" stop-color="#D12149"/>
        </linearGradient>
        <linearGradient id="prefix__b" x1="0%" x2="81%" y1="50%" y2="50%">
            <stop offset="0%" stop-color="#6F5199"/>
            <stop offset="33%" stop-color="#8C4382"/>
            <stop offset="100%" stop-color="#D12149"/>
        </linearGradient>
        <linearGradient id="prefix__c" x1="0%" x2="100%" y1="48.535%" y2="48.535%">
            <stop offset="0%" stop-color="#6F5199"/>
            <stop offset="33%" stop-color="#8C4382"/>
            <stop offset="100%" stop-color="#D12149"/>
        </linearGradient>
        <linearGradient id="prefix__d" x1="15.69%" x2="88.36%" y1="50.253%" y2="50.253%">
            <stop offset="0%" stop-color="#6F5199"/>
            <stop offset="33%" stop-color="#8C4382"/>
            <stop offset="100%" stop-color="#D12149"/>
        </linearGradient>
        <linearGradient id="prefix__e" x1="15.235%" x2="87.568%" y1="50.965%" y2="50.965%">
            <stop offset="0%" stop-color="#6F5199"/>
            <stop offset="33%" stop-color="#8C4382"/>
            <stop offset="100%" stop-color="#D12149"/>
        </linearGradient>
    </defs>
    <g fill="none">
        <path fill="url(#prefix__a)" d="M65.989 0c-6.18-.012-12.083 2.552-16.27 7.067-3.787-.944-7.735-1.056-11.57-.327C31.87.28 22.275-1.75 13.892 1.609 5.507 4.967.012 13.042 0 22.021c0 8.952 11.3 22.533 18.064 29.744 1.066 1.137 2.56 1.783 4.125 1.782 1.068.002 2.114-.304 3.01-.88 4.087 5.71 8.544 11.15 13.343 16.284C39.752 70.257 41.457 71 43.243 71c1.788.007 3.496-.737 4.702-2.049 5.04-5.39 9.69-11.127 13.92-17.166 1.061 1.145 2.557 1.796 4.124 1.796 1.567 0 3.062-.651 4.124-1.796 6.743-7.251 18.064-20.75 18.064-29.743C88.167 9.873 78.238.012 65.99 0zM21.075 49C10.455 37.547 4.125 27.45 4.125 22.02 4.13 15.113 8.128 8.822 14.403 5.845c6.275-2.977 13.714-2.111 19.127 2.226-.66.246-1.3.533-1.939.82-.64.286-1.155.573-1.711.9l-.702.41c-.495.308-.969.594-1.422.922l-.95.656c-2.446 1.89-4.54 4.191-6.186 6.8-.33.533-.639 1.086-.969 1.64-.33.553-.392.757-.577 1.167-.109.206-.205.418-.289.635-.268.594-.515 1.209-.742 1.823-.227.615-.433 1.27-.598 1.905 0 .246-.124.471-.186.697-.062.225-.206.88-.289 1.331l-.123.902c-.176.982-.293 1.974-.35 2.97v1.147c-.007.686.041 1.37.144 2.048.022.263.064.523.123.779.047.396.13.787.248 1.168 0 .245.123.532.185.798.062.267.207.697.33 1.045.124.348.227.697.371 1.065.145.37.248.676.392 1.025.145.348.33.798.516 1.229.185.43.35.758.536 1.126.186.369.474.963.742 1.475.268.512.825 1.557 1.32 2.356.495.799.97 1.618 1.505 2.458-.624.308-1.38.157-1.835-.369zm38.83-1.619c-4.466 6.662-9.48 12.945-14.991 18.785-.434.472-1.048.74-1.691.74-.644 0-1.258-.268-1.691-.74-5.21-5.538-9.987-11.462-14.291-17.72-4.413-6.637-6.62-11.901-6.62-15.67-.02-6.963 3.229-13.537 8.785-17.781.495-.39 1.01-.738 1.526-1.086 1.598-1.013 3.315-1.825 5.114-2.417.619-.205 1.258-.41 1.898-.553.116-.012.234-.012.35 0 1.642-.39 3.323-.59 5.011-.594 2.236-.01 4.46.314 6.599.963 9.465 2.927 15.92 11.62 15.94 21.468 0 3.543-2.062 8.583-5.939 14.605zM67.082 49c-.291.294-.689.46-1.104.46-.415 0-.812-.166-1.103-.46l-.68-.737c.515-.84.99-1.66 1.443-2.458.227-.39.433-.8.64-1.188.391-.738.762-1.475 1.072-2.172.31-.696.66-1.454.928-2.171.268-.717.536-1.373.742-2.049 0-.245.144-.47.206-.717.062-.245.227-.921.33-1.352.103-.43.103-.45.124-.675.02-.226 0-.451.103-.656.081-.419.122-.844.124-1.27v-.778c0-.717 0-1.434-.103-2.151v-1.066c0-.348 0-.717-.165-1.065l-.124-.737c0-.246 0-.512-.165-.758s-.144-.615-.227-.942c-.345-1.29-.793-2.55-1.34-3.77-.145-.389-.33-.758-.495-1.106-.165-.348-.371-.717-.578-1.065-.327-.629-.692-1.238-1.092-1.823-.227-.369-.454-.697-.702-1.024-.247-.328-.495-.676-.763-1.004-.268-.328-.515-.635-.783-.942-.268-.308-.68-.758-1.01-1.086-.178-.2-.37-.385-.578-.553-.653-.658-1.342-1.28-2.062-1.864l-.928-.676-1.052-.574c-.31-.184-.598-.389-.907-.553-.454-.284-.922-.543-1.402-.778-.454-.246-.95-.471-1.423-.697 5.33-4.649 12.905-5.77 19.367-2.864 6.462 2.905 10.614 9.297 10.616 16.343.062 5.47-6.29 15.548-16.91 26.978z"/>
        <path fill="url(#prefix__b)" d="M66.42 42.371c.389-.766.733-1.553 1.03-2.357-.252.756-.618 1.534-1.03 2.357zm1.03-2.357c.32-.756.595-1.497.825-2.224-.23.727-.504 1.468-.825 2.224z"/>
        <path fill="url(#prefix__c)" d="M37.433 11.143c-.651.16-1.303.39-1.933.619.628-.234 1.266-.432 1.912-.596h.378c-.118-.02-.237-.028-.357-.023z"/>
        <path fill="url(#prefix__d)" d="M50.536 18.22c.103.052.211.093.323.122h-.121.161l.586.285c.382.21.752.442 1.11.692l.242.183c.303.203-.222-.204 0 0l.525.468c.323.285.626.61.929.936l.182.224s.282.367.141.163c-.141-.203 0 0 0 .122l.202.285c.241.369.464.749.666 1.14.072.23.174.45.303.652 0 0 0-.285 0 0 .025.091.058.18.1.264.157.453.285.916.384 1.384.265.876 1.172 1.38 2.048 1.138.875-.243 1.4-1.144 1.182-2.033-1.008-4.292-4.087-7.787-8.196-9.303-.88-.233-1.782.295-2.019 1.18-.197.884.313 1.771 1.171 2.036l.081.061z"/>
        <path fill="url(#prefix__e)" d="M71.082 10.285c.107.064.222.112.343.141h-.12.16l.585.283c.385.202.755.431 1.108.686l.242.162c.302.222-.242-.182 0 0 .194.138.376.293.544.464.322.29.625.6.906.929.078.063.146.138.202.222l.12.161c-.14-.202 0 0 0 0l.222.303c.241.358.463.729.665 1.11.064.231.166.45.302.646 0 0-.12-.262 0 0l.121.283c.158.448.286.907.383 1.373.146.591.6 1.057 1.187 1.216.587.16 1.214-.013 1.638-.45.423-.438.576-1.072.399-1.655-1.01-4.259-4.081-7.73-8.18-9.246-.874-.197-1.753.313-2.015 1.171-.188.874.318 1.748 1.168 2.02l.02.18z"/>
    </g>
</svg>
