<svg xmlns="http://www.w3.org/2000/svg" width="40" height="40" viewBox="0 0 40 40">
    <defs>
        <linearGradient id="prefix__a" x1=".011%" x2="100.011%" y1="50%" y2="50%">
            <stop offset="0%" stop-color="#6F5199"/>
            <stop offset="33%" stop-color="#8C4382"/>
            <stop offset="100%" stop-color="#D12149"/>
        </linearGradient>
    </defs>
    <path fill="url(#prefix__a)" d="M34.14 5.86C28.42.139 19.818-1.573 12.343 1.522 4.87 4.617-.004 11.91-.004 20c0 8.09 4.873 15.383 12.347 18.478 7.475 3.095 16.078 1.383 21.797-4.338 7.808-7.81 7.808-20.47 0-28.28zm-.84 25.43c-.926-.832-1.93-1.573-3-2.21.713-2.545 1.116-5.168 1.2-7.81h5.9c-.26 3.686-1.697 7.192-4.1 10v.02zm-30.7-10h5.88c.079 2.643.482 5.266 1.2 7.81-1.07.637-2.074 1.378-3 2.21-2.403-2.821-3.834-6.342-4.08-10.04v.02zM6.7 8.71c.926.832 1.93 1.573 3 2.21-.713 2.545-1.116 5.168-1.2 7.81H2.6c.256-3.693 1.693-7.207 4.1-10.02zm12 2.48c-2.055-.143-4.067-.654-5.94-1.51 1.08-2.78 3.07-6.12 5.94-6.94v8.45zm0 2.55v5H11c.086-2.234.421-4.45 1-6.61 2.133.924 4.41 1.468 6.73 1.61h-.03zm0 7.53v5c-2.31.145-4.577.69-6.7 1.61-.579-2.16-.914-4.376-1-6.61h7.7zm0 7.54v8.45c-2.87-.82-4.86-4.16-5.94-6.94 1.883-.859 3.905-1.37 5.97-1.51h-.03zm2.54 0c2.055.143 4.067.654 5.94 1.51-1.08 2.78-3.07 6.12-5.94 6.94v-8.45zm0-2.55v-5H29c-.086 2.234-.421 4.45-1 6.61-2.135-.928-4.416-1.476-6.74-1.62l-.02.01zm0-7.53v-5c2.33-.138 4.618-.683 6.76-1.61.579 2.16.914 4.376 1 6.61h-7.76zm0-7.54V2.74c2.87.82 4.86 4.16 5.94 6.94-1.864.852-3.866 1.363-5.91 1.51h-.03zM27 4c1.644.719 3.166 1.69 4.51 2.88-.641.573-1.327 1.095-2.05 1.56C28.842 6.857 28.014 5.364 27 4zM10.54 8.45c-.706-.467-1.375-.989-2-1.56C9.868 5.701 11.373 4.726 13 4c-1.014 1.364-1.842 2.857-2.46 4.44v.01zm0 23.1c.618 1.587 1.445 3.083 2.46 4.45-1.644-.719-3.166-1.69-4.51-2.88.64-.577 1.326-1.102 2.05-1.57zm18.92 0c.723.465 1.409.987 2.05 1.56-1.343 1.193-2.865 2.168-4.51 2.89 1.014-1.364 1.842-2.857 2.46-4.44v-.01zm2.06-12.82c-.079-2.643-.482-5.266-1.2-7.81 1.07-.637 2.074-1.378 3-2.21 2.403 2.808 3.84 6.314 4.1 10l-5.9.02z"/>
</svg>
