<svg xmlns="http://www.w3.org/2000/svg" width="81" height="73" viewBox="0 0 81 73">
    <defs>
        <linearGradient id="prefix__a" x1="0%" x2="99.998%" y1="49.997%" y2="49.997%">
            <stop offset="0%" stop-color="#6F5199"/>
            <stop offset="33%" stop-color="#8C4382"/>
            <stop offset="100%" stop-color="#D12149"/>
        </linearGradient>
    </defs>
    <path fill="url(#prefix__a)" d="M80.84 45.892c0-6.766-4.125-12.337-9.389-12.97-.93-1.113-2.142-1.956-3.51-2.442v-.778c-.067-7.577-2.883-14.872-7.922-20.53C55.106 3.435 47.962.093 40.41 0c-7.546.094-14.685 3.436-19.59 9.171-5.04 5.659-7.855 12.954-7.924 20.531v.778c-1.366.486-2.578 1.329-3.509 2.442C4.124 33.555 0 39.126 0 45.892c0 6.765 4.124 12.318 9.388 12.97 2.181 2.699 5.834 3.719 9.098 2.54 3.264-1.18 5.421-4.298 5.373-7.768V38.149c-.003-3.997-2.908-7.4-6.855-8.031v-.416c.007-3.01.533-5.996 1.555-8.827 5.625-6.219 13.479-9.963 21.852-10.42 8.41.43 16.307 4.177 21.96 10.42 1.016 2.832 1.536 5.818 1.537 8.827v.416c-3.94.639-6.836 4.04-6.838 8.031v15.485c-.047 3.47 2.11 6.589 5.374 7.768 3.264 1.179 6.917.159 9.098-2.54.328-.044.654-.104.976-.182-1.52 5.825-7 9.642-14.38 9.642h-.814c-2.429.03-4.837-.444-7.073-1.393.452-.917.687-1.926.687-2.949-.01-3.632-2.952-6.574-6.584-6.584h-1.972c-3.636 0-6.584 2.948-6.584 6.584 0 3.637 2.948 6.585 6.584 6.585h1.972c.982.005 1.953-.211 2.84-.633 3.099 1.614 6.545 2.447 10.04 2.424h.813c4.798.102 9.477-1.5 13.205-4.523 3.435-2.96 5.47-7.225 5.608-11.757 2.607-2.744 4.036-6.4 3.98-10.184zM42.381 66.585c-.966.081-1.895-.388-2.403-1.213-.508-.826-.508-1.867 0-2.692.508-.826 1.437-1.295 2.403-1.214h1.972c.966-.081 1.895.388 2.403 1.214.508.825.508 1.866 0 2.692-.508.825-1.437 1.294-2.403 1.213h-1.972zm34.37-20.693c.118 3.04-1.154 5.97-3.456 7.959V38.149v-.235c2.325 1.985 3.618 4.922 3.51 7.978h-.055zm-72.772 0c-.086-3.03 1.204-5.937 3.509-7.905-.01.078-.01.157 0 .235v15.484c-.01.072-.01.145 0 .217-2.323-2.006-3.596-4.966-3.455-8.031H3.98zm15.7-7.743v15.485c-.143 2.167-1.943 3.85-4.115 3.85-2.171 0-3.971-1.683-4.115-3.85V38.149c-.102-1.535.66-3 1.975-3.798s2.966-.798 4.281 0c1.315.799 2.077 2.263 1.975 3.798zM40.41 7.78c-6.592.27-12.965 2.451-18.342 6.276 4.173-6.067 10.983-9.787 18.343-10.021 7.36.228 14.173 3.95 18.342 10.021-5.375-3.83-11.748-6.01-18.342-6.277zm24.8 49.96c-2.267 0-4.106-1.838-4.106-4.105V38.149c-.102-1.535.66-3 1.975-3.798s2.966-.798 4.281 0c1.315.799 2.077 2.263 1.975 3.798v15.485c-.01 2.27-1.854 4.106-4.125 4.106z"/>
</svg>
