<svg xmlns="http://www.w3.org/2000/svg" width="88" height="70" viewBox="0 0 88 70">
    <defs>
        <linearGradient id="prefix__a" x1="0%" x2="100%" y1="50%" y2="50%">
            <stop offset="0%" stop-color="#6F5199"/>
            <stop offset="33%" stop-color="#8C4382"/>
            <stop offset="100%" stop-color="#D12149"/>
        </linearGradient>
        <linearGradient id="prefix__b" x1="0%" x2="100%" y1="50.037%" y2="50.037%">
            <stop offset="0%" stop-color="#6F5199"/>
            <stop offset="33%" stop-color="#8C4382"/>
            <stop offset="100%" stop-color="#D12149"/>
        </linearGradient>
        <linearGradient id="prefix__c" x1="-.07%" x2="100.025%" y1="50.098%" y2="50.098%">
            <stop offset="0%" stop-color="#6F5199"/>
            <stop offset="33%" stop-color="#8C4382"/>
            <stop offset="100%" stop-color="#D12149"/>
        </linearGradient>
    </defs>
    <g fill="none">
        <path fill="url(#prefix__a)" d="M73.095 52.28c-.885 0-1.755.227-2.528.658-.773-.43-1.643-.657-2.528-.658-2.898 0-5.247 2.35-5.247 5.247 0 2.898 2.349 5.247 5.247 5.247.885 0 1.755-.227 2.528-.658.773.431 1.643.658 2.528.658 2.898 0 5.247-2.349 5.247-5.247 0-2.898-2.349-5.247-5.247-5.247zm-2.84 6.927c-.054.092-.125.174-.207.243-.067.078-.142.148-.226.207h-.103c-.498.376-1.109.571-1.732.554-1.478-.115-2.619-1.348-2.619-2.83 0-1.483 1.14-2.717 2.619-2.832.63.007 1.24.227 1.732.623.665.537 1.053 1.345 1.056 2.2.07.677-.115 1.356-.52 1.904v-.069zm2.84 1.091c-.201.017-.404.017-.606 0 .047-.065.088-.135.121-.208l.156-.311.104-.208c.008-.08.008-.162 0-.243.008-.075.008-.15 0-.225.005-.075.005-.15 0-.225v-.398-.295c.009-.086.009-.173 0-.26.023-.172.023-.347 0-.519.009-.086.009-.173 0-.26v-.502-.156c.01-.074.01-.15 0-.225.008-.08.008-.162 0-.242.007-.075.007-.15 0-.225l-.138-.503-.156-.294c-.034-.078-.074-.154-.121-.225.201-.017.404-.017.606 0 1.064-.083 2.085.437 2.643 1.348.558.91.558 2.056 0 2.967-.558.91-1.579 1.43-2.643 1.348l.034-.139z" transform="translate(0 -1)"/>
        <path fill="url(#prefix__b)" d="M79.226 17.005H62.653v-5.697c.004-1.077-.637-2.052-1.628-2.476L45.44 1.905c-.69-.3-1.474-.3-2.165 0L27.69 8.832c-1.024.397-1.704 1.378-1.714 2.476v5.697H7.793c-4.3.01-7.783 3.493-7.793 7.793v38.41c.01 4.3 3.493 7.782 7.793 7.792h71.433c4.3-.01 7.783-3.493 7.792-7.793V24.798c-.01-4.3-3.493-7.783-7.792-7.793zm-47.917-3.93l12.953-5.68 12.97 5.68v16.884c-.028 1.848-.918 3.578-2.406 4.675l-2.46 1.732-8.104 5.836-8.104-5.836-2.442-1.732c-.82-.603-1.47-1.408-1.887-2.338-.346-.749-.523-1.564-.52-2.39V13.075zM4.104 24.797c-.004-.981.382-1.924 1.074-2.62.693-.695 1.633-1.086 2.615-1.086h18.183v8.867c0 .797.087 1.593.26 2.372H4.103v-7.533zm78.827 38.41c0 .98-.39 1.921-1.086 2.614-.695.692-1.638 1.078-2.62 1.074H7.794c-2.037 0-3.689-1.652-3.689-3.689V36.366h23.863c.71 1.013 1.582 1.902 2.58 2.632l12.122 8.745c.944.69 2.226.69 3.17 0l12.121-8.745c1.024-.724 1.92-1.614 2.65-2.632H82.93v26.841zm0-30.877h-20.59c.173-.779.26-1.575.26-2.372v-8.867h16.573c2.046 0 3.706 1.66 3.706 3.706l.051 7.533z" transform="translate(0 -1)"/>
        <path fill="url(#prefix__c)" d="M54.531 16.469l-.346.536-2.736 4.087-7.481 11.239-.831 1.23c-.312.476-.807.802-1.368.9h-.347c-.448-.005-.884-.15-1.246-.416l-2.32-1.731-3.378-2.529c-.898-.692-1.083-1.974-.415-2.892.328-.443.821-.736 1.368-.813.54-.073 1.088.07 1.524.398l3.948 2.961 5.576-8.364 2.736-4.087 1.888-2.823c.4-.625 1.108-.985 1.85-.938.741.047 1.399.492 1.717 1.163.337.666.284 1.463-.139 2.079z" transform="translate(0 -1)"/>
    </g>
</svg>
