<svg xmlns="http://www.w3.org/2000/svg" width="42" height="40" viewBox="0 0 42 40">
    <defs>
        <linearGradient id="prefix__a" x1="-1.685%" x2="100%" y1="51.685%" y2="51.685%">
            <stop offset="0%" stop-color="#6F5199"/>
            <stop offset="33%" stop-color="#8C4382"/>
            <stop offset="100%" stop-color="#D12149"/>
        </linearGradient>
        <linearGradient id="prefix__b" x1="0%" x2="99.976%" y1="50%" y2="50%">
            <stop offset="0%" stop-color="#6F5199"/>
            <stop offset="33%" stop-color="#8C4382"/>
            <stop offset="100%" stop-color="#D12149"/>
        </linearGradient>
    </defs>
    <g fill="none">
        <path fill="url(#prefix__a)" d="M9.33 35c-.492 0-.89.398-.89.89s.398.89.89.89.89-.398.89-.89-.398-.89-.89-.89z"/>
        <path fill="url(#prefix__b)" d="M37.34 0H7.54c-2.21 0-4 1.79-4 4v8h-.8C1.237 12.005.016 13.217 0 14.72v22.53c0 .73.29 1.429.805 1.945.516.515 1.216.805 1.945.805h13.33c1.519 0 2.75-1.231 2.75-2.75v-2h13.6c.735 0 1.33-.595 1.33-1.33 0-.735-.595-1.33-1.33-1.33H28.5v-2.52h8.84c2.21 0 4-1.79 4-4V4c0-2.21-1.79-4-4-4zM2.75 14.64h13.33c.046 0 .085.034.09.08v17.53H2.66V14.72c.005-.046.044-.08.09-.08zm13.33 22.7H2.75c-.024 0-.047-.01-.064-.026-.017-.017-.026-.04-.026-.064V34h13.51v3.23c.003.027-.005.053-.022.074-.017.02-.041.033-.068.036zm9.76-4.73H19v-2.54h6.8l.04 2.54zm12.83-6.54c0 .736-.594 1.335-1.33 1.34H18.83V14.72c-.016-1.507-1.243-2.72-2.75-2.72H6.21V4c0-.736.594-1.335 1.33-1.34h29.8c.736.005 1.33.604 1.33 1.34v22.07z"/>
    </g>
</svg>
