<svg xmlns="http://www.w3.org/2000/svg" width="39" height="37" viewBox="0 0 39 37">
    <defs>
        <linearGradient id="prefix__a" x1="-.092%" x2="99.923%" y1="50.014%" y2="50.014%">
            <stop offset="0%" stop-color="#6F5199"/>
            <stop offset="33%" stop-color="#8C4382"/>
            <stop offset="100%" stop-color="#D12149"/>
        </linearGradient>
        <linearGradient id="prefix__b" x1="0%" x2="99.948%" y1="49.999%" y2="49.999%">
            <stop offset="0%" stop-color="#6F5199"/>
            <stop offset="33%" stop-color="#8C4382"/>
            <stop offset="100%" stop-color="#D12149"/>
        </linearGradient>
    </defs>
    <g fill="none">
        <path fill="url(#prefix__a)" d="M18.436 32.7L6.346 19.34c-.339-.336-.44-.844-.255-1.283.185-.44.618-.723 1.095-.717h7.31V1.17c0-.63.499-1.148 1.13-1.17h7.3c.31 0 .607.123.827.343.22.22.343.517.343.827v16.19h7.31c.48-.013.917.272 1.101.715.184.443.076.954-.271 1.285L20.106 32.7c-.22.224-.521.35-.835.35-.315 0-.615-.126-.835-.35zm-8.93-13.19l9.76 11 10.78-11h-8.11V2.16h-5.32v17.35h-7.11z"/>
        <path fill="url(#prefix__b)" d="M36.39 36.62H1.74c-.961 0-1.74-.779-1.74-1.74v-6.8C0 27.484.484 27 1.08 27c.286 0 .561.114.764.316.202.203.316.478.316.764v4.64c0 .961.779 1.74 1.74 1.74h30.33c.467.008.917-.172 1.25-.499.333-.327.52-.774.52-1.241v-4.64c0-.596.484-1.08 1.08-1.08.594.005 1.075.486 1.08 1.08v6.8c0 .467-.187.914-.52 1.241-.333.327-.783.507-1.25.499z"/>
    </g>
</svg>
