<svg xmlns="http://www.w3.org/2000/svg" width="105" height="70" viewBox="0 0 105 70">
    <defs>
        <linearGradient id="prefix__a" x1=".778%" x2="99.222%" y1="50.094%" y2="50.094%">
            <stop offset="0%" stop-color="#6F5199"/>
            <stop offset="33%" stop-color="#8C4382"/>
            <stop offset="100%" stop-color="#D12149"/>
        </linearGradient>
        <linearGradient id="prefix__b" x1="-1.476%" x2="101.476%" y1="50.262%" y2="50.262%">
            <stop offset="0%" stop-color="#6F5199"/>
            <stop offset="33%" stop-color="#8C4382"/>
            <stop offset="100%" stop-color="#D12149"/>
        </linearGradient>
        <linearGradient id="prefix__c" x1="0%" x2="100%" y1="50%" y2="50%">
            <stop offset="0%" stop-color="#6F5199"/>
            <stop offset="33%" stop-color="#8C4382"/>
            <stop offset="100%" stop-color="#D12149"/>
        </linearGradient>
        <linearGradient id="prefix__d" x1=".022%" x2="99.978%" y1="50%" y2="50%">
            <stop offset="0%" stop-color="#6F5199"/>
            <stop offset="33%" stop-color="#8C4382"/>
            <stop offset="100%" stop-color="#D12149"/>
        </linearGradient>
        <linearGradient id="prefix__e" x1=".113%" x2="100.077%" y1="50%" y2="50%">
            <stop offset="0%" stop-color="#6F5199"/>
            <stop offset="33%" stop-color="#8C4382"/>
            <stop offset="100%" stop-color="#D12149"/>
        </linearGradient>
        <linearGradient id="prefix__f" x1="0%" x2="99.97%" y1="50.286%" y2="50.286%">
            <stop offset="0%" stop-color="#6F5199"/>
            <stop offset="33%" stop-color="#8C4382"/>
            <stop offset="100%" stop-color="#D12149"/>
        </linearGradient>
        <linearGradient id="prefix__g" x1="-1.53%" x2="98.456%" y1="50%" y2="50%">
            <stop offset="0%" stop-color="#6F5199"/>
            <stop offset="33%" stop-color="#8C4382"/>
            <stop offset="100%" stop-color="#D12149"/>
        </linearGradient>
    </defs>
    <g fill="none">
        <path fill="url(#prefix__a)" d="M52.002 8.37H19.084c-2.125-.131-4.146.928-5.248 2.75-1.101 1.82-1.101 4.103 0 5.924 1.102 1.821 3.123 2.88 5.248 2.75h32.918c2.125.13 4.146-.929 5.248-2.75 1.101-1.821 1.101-4.103 0-5.925-1.102-1.82-3.123-2.88-5.248-2.75zm0 7.766H19.084c-.9-.28-1.513-1.112-1.513-2.054 0-.943.613-1.776 1.513-2.055h32.918c.9.28 1.513 1.112 1.513 2.055 0 .942-.613 1.775-1.513 2.054z" transform="translate(-2)"/>
        <path fill="url(#prefix__b)" d="M52.002 12.027H19.084c-.9.28-1.513 1.112-1.513 2.055 0 .942.613 1.775 1.513 2.054h32.918c.9-.28 1.513-1.112 1.513-2.054 0-.943-.613-1.776-1.513-2.055zm0 3.571H19.084c-.768-.091-1.347-.743-1.347-1.516 0-.774.579-1.425 1.347-1.517h32.918c.768.092 1.347.743 1.347 1.517 0 .773-.579 1.425-1.347 1.516zm0-3.571H19.084c-.9.28-1.513 1.112-1.513 2.055 0 .942.613 1.775 1.513 2.054h32.918c.9-.28 1.513-1.112 1.513-2.054 0-.943-.613-1.776-1.513-2.055zm0 3.571H19.084c-.768-.091-1.347-.743-1.347-1.516 0-.774.579-1.425 1.347-1.517h32.918c.768.092 1.347.743 1.347 1.517 0 .773-.579 1.425-1.347 1.516zm0-3.571H19.084c-.9.28-1.513 1.112-1.513 2.055 0 .942.613 1.775 1.513 2.054h32.918c.9-.28 1.513-1.112 1.513-2.054 0-.943-.613-1.776-1.513-2.055zm0 3.571H19.084c-.768-.091-1.347-.743-1.347-1.516 0-.774.579-1.425 1.347-1.517h32.918c.768.092 1.347.743 1.347 1.517 0 .773-.579 1.425-1.347 1.516z" transform="translate(-2)"/>
        <path fill="url(#prefix__c)" d="M57.467 50.066H19.084c-3.16 0-5.723 2.562-5.723 5.723 0 3.16 2.562 5.723 5.723 5.723h38.383c3.16 0 5.723-2.562 5.723-5.723s-2.562-5.723-5.723-5.723zm0 7.229H19.084c-.832 0-1.506-.674-1.506-1.506-.006-.403.15-.792.433-1.08.283-.286.67-.448 1.073-.448h38.383c.403 0 .79.162 1.073.449.283.287.439.676.433 1.079 0 .4-.159.782-.441 1.065-.283.282-.666.44-1.065.44z" transform="translate(-2)"/>
        <path fill="url(#prefix__d)" d="M61.92 29.218H7.036c-2.919.25-5.094 2.8-4.883 5.723-.2 2.918 1.97 5.46 4.883 5.723h54.886c2.913-.263 5.083-2.805 4.884-5.723.21-2.923-1.965-5.472-4.884-5.723zm0 7.229H7.036c-.172 0-.688-.538-.688-1.506 0-.969.516-1.528.688-1.528h54.886c.172 0 .688.538.688 1.528s-.516 1.506-.688 1.506z" transform="translate(-2)"/>
        <path fill="url(#prefix__e)" d="M102.606 32.058c-2.695-2.854-6.105-4.934-9.876-6.025-.425-.167-.706-.575-.71-1.032v-2.152c1.334.654 2.827.915 4.303.753h.15c2.716-.347 5.06-2.072 6.197-4.561 1.183-2.524.97-5.48-.56-7.81-.704-1.09-1.535-2.094-2.473-2.99-2.156-1.995-4.773-3.422-7.617-4.153v-.43C92.02 1.638 90.383 0 88.363 0h-5.078c-.974-.006-1.91.377-2.6 1.064-.69.686-1.079 1.62-1.079 2.594v.387c-3.301.82-6.292 2.584-8.606 5.077-3.06 3.29-4.712 7.644-4.604 12.135-.098 4.322 1.326 8.54 4.023 11.92 2.303 2.724 5.266 4.813 8.606 6.067.357.189.574.565.56.968v1.958c-1.666-1.336-3.795-1.956-5.917-1.722-2.658.259-5.02 1.802-6.326 4.131-1.334 2.316-1.486 5.128-.408 7.574.93 2.146 2.25 4.101 3.894 5.766 2.211 2.209 4.94 3.828 7.939 4.712.475.132.807.56.818 1.054v2.517c0 2.024 1.634 3.667 3.657 3.68h5.078c2.023-.013 3.657-1.656 3.657-3.68V63.47c.037-.51.39-.94.882-1.076 8.267-2.4 13.861-10.092 13.598-18.697.157-4.216-1.21-8.348-3.851-11.64zm-4.002 21.945c-1.876 2.048-4.28 3.537-6.95 4.303-2.255.664-3.811 2.726-3.83 5.078v2.151H83.91v-1.85c0-2.339-1.542-4.398-3.787-5.056-2.33-.697-4.452-1.961-6.174-3.68-1.283-1.3-2.318-2.824-3.056-4.496-.518-1.227-.439-2.626.216-3.787.624-1.185 1.79-1.988 3.12-2.151 1.818-.166 3.543.835 4.302 2.496.305.605.665 1.182 1.076 1.72.95 1.307 2.195 2.37 3.636 3.099l.753.366V40.212c.023-2.122-1.233-4.05-3.184-4.884-2.693-.972-5.093-2.616-6.971-4.776-2.077-2.646-3.165-5.933-3.077-9.295-.097-3.424 1.145-6.751 3.464-9.273 2.45-2.548 5.767-4.083 9.295-4.303h.473V4.303h4.002v3.292h.473c3.194.237 6.22 1.523 8.606 3.657.693.649 1.313 1.37 1.85 2.152.673 1.176.69 2.617.044 3.808-.529 1.182-1.64 2-2.926 2.152h-.151c-1.628.149-3.184-.702-3.937-2.152-.711-1.207-1.768-2.174-3.034-2.775l-.344-.172-.753-.323v10.973c-.007 2.245 1.409 4.249 3.528 4.991 3.045.868 5.81 2.514 8.025 4.776 2.021 2.526 3.06 5.697 2.927 8.93.125 3.807-1.198 7.52-3.701 10.391z" transform="translate(-2)"/>
        <path fill="url(#prefix__f)" d="M94.817 44.945c.024 1.805-.611 3.557-1.785 4.927-1.167 1.378-2.782 2.3-4.562 2.603l-.645.108v-15.06l.688.215c1.846.411 3.521 1.38 4.798 2.775 1.013 1.252 1.547 2.823 1.506 4.432z" transform="translate(-2)"/>
        <path fill="url(#prefix__g)" d="M83.91 13.985v13.683l-.732-.322c-1.444-.564-2.703-1.517-3.636-2.754-.778-1.102-1.199-2.416-1.205-3.765-.022-1.443.423-2.855 1.27-4.024.872-1.207 2.109-2.104 3.528-2.56l.774-.258z" transform="translate(-2)"/>
    </g>
</svg>
