<svg xmlns="http://www.w3.org/2000/svg" width="40" height="40" viewBox="0 0 40 40">
    <defs>
        <linearGradient id="prefix__a" x1="0%" x2="100%" y1="50%" y2="50%">
            <stop offset="0%" stop-color="#6F5199"/>
            <stop offset="33%" stop-color="#8C4382"/>
            <stop offset="100%" stop-color="#D12149"/>
        </linearGradient>
        <linearGradient id="prefix__b" x1="0%" x2="100%" y1="-70.048%" y2="-70.048%">
            <stop offset="0%" stop-color="#6F5199"/>
            <stop offset="33%" stop-color="#8C4382"/>
            <stop offset="100%" stop-color="#D12149"/>
        </linearGradient>
    </defs>
    <g fill="none">
        <path fill="url(#prefix__a)" d="M21.45 40h-2.9c-1.468.012-2.713-1.074-2.9-2.53l-.43-3.25c-.652-.216-1.287-.48-1.9-.79l-2.59 2c-1.167.89-2.813.779-3.85-.26l-2-2.05c-1.04-1.038-1.147-2.687-.25-3.85l2-2.59c-.31-.612-.57-1.247-.78-1.9l-3.25-.42c-1.483-.163-2.604-1.418-2.6-2.91v-2.9c-.012-1.468 1.074-2.713 2.53-2.9l3.25-.43c.216-.652.48-1.287.79-1.9l-2-2.59c-.89-1.167-.779-2.813.26-3.85l2.05-2c1.038-1.04 2.687-1.147 3.85-.25l2.59 2c.613-.31 1.248-.574 1.9-.79l.42-3.24c.163-1.483 1.418-2.604 2.91-2.6h2.9c1.468-.012 2.713 1.074 2.9 2.53l.43 3.26c.653.208 1.289.469 1.9.78l2.59-2c1.163-.897 2.812-.79 3.85.25l2.05 2.05c1.04 1.038 1.147 2.687.25 3.85l-2 2.59c.308.614.572 1.249.79 1.9l3.24.42c1.467.187 2.562 1.441 2.55 2.92v2.9c.012 1.468-1.074 2.713-2.53 2.9l-3.26.43c-.208.653-.469 1.289-.78 1.9l2 2.59c.897 1.163.79 2.812-.25 3.85l-2.05 2.05c-1.04 1.036-2.685 1.143-3.85.25l-2.59-2c-.612.31-1.247.57-1.9.78l-.42 3.25c-.187 1.467-1.441 2.562-2.92 2.55zm-8.25-9.3c.22.003.438.062.63.17.896.5 1.855.88 2.85 1.13.485.138.842.55.91 1.05l.53 4c.035.21.217.363.43.36h2.9c.221.006.409-.16.43-.38l.53-4c.075-.492.431-.895.91-1.03.997-.263 1.956-.656 2.85-1.17.438-.258.989-.222 1.39.09l3.23 2.48c.158.147.402.147.56 0l2-2c.141-.156.141-.394 0-.55L31 27.56c-.31-.401-.35-.949-.1-1.39.493-.896.863-1.855 1.1-2.85.138-.485.55-.842 1.05-.91l4-.53c.21-.035.363-.217.36-.43v-2.9c.001-.22-.162-.405-.38-.43l-4-.53c-.493-.073-.897-.43-1.03-.91-.262-1-.659-1.958-1.18-2.85-.25-.441-.21-.989.1-1.39l2.48-3.23c.138-.161.138-.399 0-.56l-2-2.05c-.158-.137-.392-.137-.55 0L27.56 9c-.403.307-.95.342-1.39.09-.898-.486-1.857-.853-2.85-1.09-.47-.13-.824-.52-.91-1l-.53-4.05c-.03-.212-.216-.367-.43-.36h-2.9c-.221-.006-.409.16-.43.38l-.53 4c-.086.48-.44.87-.91 1-.997.263-1.956.656-2.85 1.17-.45.238-.997.183-1.39-.14L9.21 6.56c-.158-.147-.402-.147-.56 0L6.6 8.65c-.141.156-.141.394 0 .55L9 12.44c.313.397.349.946.09 1.38-.483.9-.85 1.857-1.09 2.85-.127.474-.517.832-1 .92l-4.05.53c-.212.03-.367.216-.36.43v2.9c-.006.221.16.409.38.43l4 .53c.48.086.87.44 1 .91.263.997.656 1.956 1.17 2.85.244.448.188 1-.14 1.39l-2.44 3.23c-.143.16-.143.4 0 .56l2.05 2c.156.141.394.141.55 0L12.44 31c.213-.182.48-.288.76-.3z"/>
        <path fill="url(#prefix__b)" d="M20 28.33c-4.6 0-8.33-3.73-8.33-8.33s3.73-8.33 8.33-8.33 8.33 3.73 8.33 8.33c0 2.21-.878 4.328-2.44 5.89-1.562 1.562-3.68 2.44-5.89 2.44zm0-14.16c-3.22 0-5.83 2.61-5.83 5.83s2.61 5.83 5.83 5.83 5.83-2.61 5.83-5.83-2.61-5.83-5.83-5.83z"/>
    </g>
</svg>
