<svg xmlns="http://www.w3.org/2000/svg" xmlns:xlink="http://www.w3.org/1999/xlink" width="187" height="35" viewBox="0 0 187 35">
    <defs>
        <path id="prefix__a" d="M0.364 0.451L24.95 0.451 24.95 25.172 0.364 25.172z"/>
        <path id="prefix__c" d="M0 0.512L14.752 0.512 14.752 15.344 0 15.344z"/>
    </defs>
    <g fill="none" fill-rule="evenodd">
        <path fill="#FEFEFE" d="M74.097 14.767l-6.296 14.771c-.032.078-.107.127-.19.127h-3.82c-.143 0-.24-.148-.183-.28l10.497-24.32c.069-.161.296-.161.365 0L85 29.384c.057.132-.04.28-.183.28h-3.853c-.082 0-.158-.05-.19-.127l-6.296-14.77c-.072-.17-.31-.17-.38 0M55.174 19.842L61.47 5.07c.033-.076.108-.126.191-.126h3.82c.144 0 .24.147.182.28l-10.497 24.32c-.068.16-.295.161-.365 0l-10.53-24.32c-.056-.132.04-.28.184-.28h3.852c.083 0 .158.05.19.126l6.297 14.772c.072.168.31.168.38 0M91.135 27.675c-.972-.742-1.71-1.653-2.213-2.698-.57-1.147-.839-2.428-.839-3.81V5.144c0-.11.09-.2.2-.2h3.492c.11 0 .199.09.199.2v16.023c0 1.484.536 2.63 1.543 3.406.94.741 2.314 1.18 3.79 1.18 1.442 0 2.817-.439 3.79-1.18 1.006-.776 1.509-1.922 1.509-3.406V5.144c0-.11.09-.2.2-.2h3.525c.11 0 .2.09.2.2v16.023c0 1.382-.302 2.663-.84 3.81-.537 1.045-1.274 1.956-2.213 2.698-1.643 1.282-3.824 1.99-6.171 1.99-2.348 0-4.528-.708-6.172-1.99M127.594 29.492l-6.274-9.24c-.082-.12-.257-.12-.339 0l-6.242 9.24c-.073.108-.195.173-.325.173h-4.257c-.158 0-.252-.177-.163-.31l8.658-12.801c.048-.07.048-.162 0-.232l-7.499-11.07c-.089-.13.005-.308.163-.308h4.258c.13 0 .252.065.325.173l5.082 7.507c.082.12.257.12.339 0l5.114-7.508c.072-.107.195-.172.324-.172h4.258c.159 0 .252.179.163.31l-7.531 11.068c-.048.07-.048.162 0 .232l8.69 12.802c.09.13-.005.309-.162.309h-4.258c-.13 0-.25-.065-.324-.173M145.91 25.71c-4.616 0-8.358-3.763-8.358-8.405 0-4.642 3.742-8.406 8.359-8.406 4.616 0 8.359 3.764 8.359 8.406 0 4.642-3.743 8.405-8.36 8.405m0-20.766c-6.789 0-12.293 5.534-12.293 12.36 0 6.827 5.504 12.36 12.294 12.36 6.79 0 12.293-5.533 12.293-12.36 0-6.826-5.504-12.36-12.293-12.36"/>
        <g transform="translate(161.905 4.493)">
            <mask id="prefix__b" fill="#fff">
                <use xlink:href="#prefix__a"/>
            </mask>
            <path fill="#FEFEFE" d="M12.657 21.217c-4.617 0-8.36-3.763-8.36-8.405 0-4.642 3.743-8.406 8.36-8.406 4.617 0 8.36 3.764 8.36 8.406 0 4.642-3.743 8.405-8.36 8.405m0-20.766C5.867.451.364 5.985.364 12.812c0 6.827 5.504 12.36 12.293 12.36 6.79 0 12.293-5.533 12.293-12.36 0-6.827-5.503-12.36-12.293-12.36" mask="url(#prefix__b)"/>
        </g>
        <path fill="#FEFEFE" d="M27.178 24.72l-7.508-7.415 7.508-7.417 7.055 6.968c.25.248.25.65 0 .897l-7.055 6.968z"/>
        <g transform="translate(0 9.377)">
            <mask id="prefix__d" fill="#fff">
                <use xlink:href="#prefix__c"/>
            </mask>
            <path fill="#FEFEFE" d="M7.243 15.344l7.509-7.416L7.242.512.189 7.48c-.25.247-.25.649 0 .896l7.055 6.968z" mask="url(#prefix__d)"/>
        </g>
        <path fill="#FEFEFE" d="M24.586 27.326l-7.375-7.549-7.376 7.55 6.93 7.093c.246.252.645.252.891 0l6.93-7.094zM9.835 7.282l7.375 7.55 7.377-7.55L17.657.19c-.247-.252-.647-.252-.892 0l-6.93 7.093z"/>
    </g>
</svg>
