<svg xmlns="http://www.w3.org/2000/svg" xmlns:xlink="http://www.w3.org/1999/xlink" width="426" height="79" viewBox="0 0 426 79">
    <defs>
        <path id="prefix__a" d="M0.249 0.864L56.197 0.864 56.197 56.81 0.249 56.81z"/>
        <path id="prefix__c" d="M0 0.053L33.568 0.053 33.568 33.621 0 33.621z"/>
        <path id="prefix__e" d="M0 0.445L16.481 0.445 16.481 17.229 0 17.229z"/>
        <path id="prefix__g" d="M0.379 0.432L33.947 0.432 33.947 34 0.379 34z"/>
        <path id="prefix__i" d="M0.771 0.519L17.555 0.519 17.555 17 0.771 17z"/>
    </defs>
    <g fill="none" fill-rule="evenodd">
        <path fill="#282931" d="M168.61 33.421l-14.326 33.43c-.074.173-.244.285-.433.285h-8.693c-.326 0-.546-.334-.416-.633l23.887-55.041c.157-.363.672-.363.83 0l23.961 55.04c.13.299-.089.634-.415.634h-8.768c-.188 0-.358-.112-.433-.285l-14.328-33.43c-.163-.381-.702-.381-.866 0M125.552 44.905l14.326-33.43c.074-.173.245-.285.433-.285h8.694c.326 0 .545.334.415.633l-23.886 55.04c-.158.364-.673.364-.83 0l-23.962-55.04c-.13-.3.09-.633.416-.633h8.767c.19 0 .36.112.433.285l14.328 33.43c.163.38.703.38.866 0M207.382 62.634c-2.213-1.68-3.892-3.741-5.038-6.106-1.296-2.596-1.907-5.495-1.907-8.624V11.643c0-.251.203-.453.453-.453h7.948c.25 0 .453.202.453.453v36.26c0 3.359 1.219 5.953 3.51 7.709 2.137 1.679 5.266 2.67 8.624 2.67 3.283 0 6.412-.991 8.624-2.67 2.29-1.756 3.435-4.35 3.435-7.708V11.643c0-.251.203-.453.453-.453h8.024c.25 0 .453.202.453.453v36.26c0 3.13-.687 6.029-1.907 8.625-1.222 2.365-2.902 4.427-5.038 6.106-3.741 2.899-8.702 4.502-14.044 4.502-5.341 0-10.302-1.603-14.043-4.502M290.344 66.746l-14.276-20.912c-.185-.271-.585-.27-.77 0l-14.204 20.91c-.167.246-.444.393-.74.393h-9.689c-.359 0-.572-.403-.37-.7l19.703-28.973c.108-.158.108-.366 0-.524l-17.064-25.051c-.202-.297.01-.7.37-.7h9.69c.295 0 .573.147.74.392L275.3 28.57c.185.27.583.272.77 0l11.635-16.991c.167-.244.444-.39.74-.39h9.69c.358 0 .571.404.368.7l-17.136 25.05c-.108.159-.108.367 0 .526l19.775 28.972c.203.297-.01.7-.369.7h-9.688c-.296 0-.573-.146-.74-.391"/>
        <path fill="#A62B3B" d="M332.026 58.185c-10.506 0-19.022-8.517-19.022-19.022 0-10.506 8.516-19.022 19.022-19.022 10.506 0 19.022 8.516 19.022 19.022 0 10.505-8.516 19.022-19.022 19.022m0-46.996c-15.45 0-27.974 12.524-27.974 27.974 0 15.45 12.525 27.973 27.974 27.973s27.973-12.524 27.973-27.973c0-15.45-12.524-27.974-27.973-27.974"/>
        <g transform="translate(369 10.326)">
            <mask id="prefix__b" fill="#fff">
                <use xlink:href="#prefix__a"/>
            </mask>
            <path fill="#A62B3B" d="M28.223 47.86c-10.506 0-19.022-8.517-19.022-19.023S17.717 9.816 28.223 9.816c10.506 0 19.022 8.515 19.022 19.021S38.73 47.86 28.223 47.86m0-46.995C12.774.864.25 13.387.25 28.837S12.774 56.81 28.223 56.81c15.45 0 27.974-12.524 27.974-27.973 0-15.45-12.525-27.974-27.974-27.974" mask="url(#prefix__b)"/>
        </g>
        <path fill="#BF2645" d="M61.844 55.947L44.758 39.163l17.086-16.784 16.054 15.769c.57.56.57 1.469 0 2.029l-16.054 15.77z"/>
        <path fill="#A62B3B" d="M53.301 47.555L44.758 39.163 53.301 30.771 61.844 39.163z"/>
        <path fill="#D02149" d="M70.388 47.555l7.51-7.377c.57-.56.57-1.47 0-2.03l-7.51-7.377-8.543 8.392 8.543 8.392z"/>
        <g transform="translate(0 22.326)">
            <mask id="prefix__d" fill="#fff">
                <use xlink:href="#prefix__c"/>
            </mask>
            <path fill="#BF2645" d="M16.481 33.621l17.087-16.784L16.481.053.427 15.823c-.57.56-.57 1.468 0 2.028l16.054 15.77z" mask="url(#prefix__d)"/>
        </g>
        <path fill="#A62B3B" d="M25.025 47.555L33.568 39.163 25.025 30.771 16.482 39.163z"/>
        <g transform="translate(0 30.326)">
            <mask id="prefix__f" fill="#fff">
                <use xlink:href="#prefix__e"/>
            </mask>
            <path fill="#D02149" d="M7.938 17.23L.428 9.851c-.57-.56-.57-1.469 0-2.03L7.937.445l8.543 8.392-8.543 8.392z" mask="url(#prefix__f)"/>
        </g>
        <g transform="translate(22 44.326)">
            <mask id="prefix__h" fill="#fff">
                <use xlink:href="#prefix__g"/>
            </mask>
            <path fill="#BF2645" d="M33.947 17.519L17.163.432.379 17.519l15.769 16.054c.56.57 1.469.57 2.03 0l15.769-16.054z" mask="url(#prefix__h)"/>
        </g>
        <path fill="#A62B3B" d="M47.555 53.301L39.163 44.758 30.771 53.301 39.163 61.844z"/>
        <g transform="translate(30 61.326)">
            <mask id="prefix__j" fill="#fff">
                <use xlink:href="#prefix__i"/>
            </mask>
            <path fill="#D02149" d="M17.555 9.062l-7.377 7.51c-.56.57-1.47.57-2.03 0L.771 9.063 9.163.519l8.392 8.543z" mask="url(#prefix__j)"/>
        </g>
        <path fill="#C7D1D7" d="M22.379 16.482l16.784 17.086 16.784-17.086L40.177.427c-.56-.57-1.468-.57-2.03 0L22.38 16.482z"/>
        <path fill="#B8C5CC" d="M30.771 25.025L39.163 33.568 47.555 25.025 39.163 16.482z"/>
        <path fill="#D2D9DD" d="M30.771 7.938l7.377-7.51c.56-.57 1.469-.57 2.03 0l7.377 7.51-8.392 8.543-8.392-8.543z"/>
    </g>
</svg>
