<svg width="64" height="64" viewBox="0 0 64 64" fill="none" xmlns="http://www.w3.org/2000/svg">
<path d="M62.5249 2.97011C62.0935 2.53752 62.0991 2.5319 61.6677 2.09931C61.2363 1.66672 61.2475 1.65548 60.8217 1.22288C60.3903 0.790291 60.3174 0.846472 59.886 0.419497C59.5723 0.104884 58.7375 0.273426 58.4293 0.599276C57.9083 1.15547 58.3229 0.627366 57.841 1.11052C57.3816 1.57121 57.3928 1.57683 56.9334 2.03751C56.474 2.49819 56.5356 2.55437 56.0762 3.00944C55.6224 3.4645 55.6728 3.51507 55.2134 3.97013C54.7595 4.4252 54.8212 4.49262 54.3673 4.9533C53.9135 5.40837 53.9191 5.4196 53.4653 5.87467C53.0115 6.32973 52.8378 6.16119 52.384 6.61626C51.9302 7.07132 51.9078 7.04885 51.4483 7.50392C50.9945 7.95898 51.0449 8.01516 50.5911 8.47023C50.1373 8.92529 50.255 9.04327 49.8011 9.49834C49.3473 9.9534 49.3305 9.94217 48.8767 10.3972C48.4229 10.8523 48.2828 10.7118 47.8234 11.1669C47.3695 11.622 47.5488 11.8074 47.095 12.2624C46.6412 12.7175 46.5347 12.6108 46.0753 13.0658C45.6215 13.5209 45.5431 13.4422 45.0892 13.9029C44.6354 14.358 44.613 14.3355 44.1592 14.7962C43.7054 15.2513 43.711 15.2569 43.2572 15.712C42.8033 16.167 42.7977 16.167 42.3439 16.6221C41.8901 17.0772 41.9797 17.1727 41.5259 17.6277C41.0721 18.0828 40.9768 17.9873 40.523 18.4423C40.0692 18.8974 40.1532 18.9817 39.6994 19.4368C39.2456 19.8918 39.2288 19.875 38.775 20.33C38.3212 20.7851 38.3324 20.8019 37.8785 21.257C37.4247 21.7121 37.3407 21.6278 36.8869 22.0829C36.433 22.5379 36.5171 22.6222 36.0633 23.0773C35.6094 23.5323 35.6487 23.5717 35.1948 24.0267C34.741 24.4818 34.7858 24.5267 34.332 24.9818C33.8782 25.4369 33.7886 25.347 33.3347 25.8021C32.8809 26.2571 32.8529 26.2346 32.3991 26.6897C31.9453 27.1448 32.0293 27.229 31.5699 27.6841C31.1161 28.1392 31.0656 28.0886 30.6118 28.5437C30.158 28.9987 30.2532 29.0886 29.7994 29.5437C29.3456 29.9988 29.1719 29.819 28.7181 30.2741C28.2643 30.7291 28.2923 30.7516 27.8385 31.2067C27.3846 31.6617 27.5247 31.7966 27.0709 32.2516C26.6171 32.7067 26.477 32.5719 26.0232 33.0269C25.5694 33.482 25.6198 33.5326 25.166 33.9876C24.7121 34.4427 24.7794 34.5101 24.3256 34.9652C23.8717 35.4202 23.8773 35.4258 23.4235 35.8809C22.9697 36.336 23.0257 36.3922 22.5719 36.8472C22.1181 37.3023 22.0004 37.1843 21.5466 37.6394C21.0928 38.0944 21.1096 38.1113 20.6558 38.5664C20.202 39.0214 20.2972 39.1169 19.8434 39.572C19.3896 40.0271 19.3055 39.9428 18.8573 40.4035C18.4035 40.8585 18.3362 40.7911 17.8824 41.2406C17.4286 41.6956 17.4678 41.735 17.014 42.19C16.5602 42.6451 16.6386 42.7238 16.1848 43.1788C15.731 43.6339 16.1848 43.1788 15.731 43.6339C15.3332 44.0328 14.067 44.1845 13.686 43.471C13.6076 43.3249 13.742 43.5609 13.686 43.471C13.4563 43.1058 13.0753 42.8305 12.868 42.4541C12.6607 42.0777 12.4254 41.7069 12.2405 41.3136C12.0556 40.926 12.022 40.4653 11.8651 40.0664C11.7026 39.6675 11.5514 39.263 11.4169 38.8529C11.2824 38.4428 11.2432 38.0102 11.1311 37.5944C11.0191 37.1787 10.7894 36.791 10.6997 36.3697C10.6101 35.9483 10.5765 35.5157 10.5092 35.0888C10.4476 34.6618 10.5148 34.2236 10.4756 33.7966C10.4364 33.3696 10.2907 32.9483 10.2795 32.5157C10.2683 32.0887 10.2123 31.6561 10.2291 31.2179C10.2403 30.7909 10.2795 30.3583 10.3188 29.9257C10.358 29.4875 10.3468 29.0381 10.414 28.6055C10.4812 28.1673 10.6045 27.7403 10.6997 27.3133C10.795 26.8807 11.0415 26.4931 11.1592 26.0717C11.2768 25.6447 11.2376 25.1728 11.3833 24.7571C11.5289 24.3413 11.7923 23.9706 11.9604 23.566C12.1284 23.1615 12.375 22.7908 12.5654 22.3975C12.7559 22.0042 12.952 21.611 13.1649 21.2289C13.3834 20.8469 13.4115 20.3469 13.6524 19.9817C13.8933 19.6109 14.3639 19.403 14.6216 19.0491C14.885 18.6952 15.0643 18.285 15.3444 17.948C15.6245 17.6109 15.8038 17.1783 16.1064 16.858C16.4089 16.5378 16.8907 16.3974 17.2101 16.0996C17.5295 15.7962 17.8432 15.4985 18.1794 15.2119C18.5155 14.931 18.8797 14.6951 19.2327 14.4366C19.5857 14.1782 19.9498 13.9423 20.314 13.7063C20.6838 13.4647 20.9527 13.0771 21.3393 12.858C21.7203 12.6389 22.0789 12.3692 22.4711 12.1782C22.8632 11.9872 23.3059 11.8804 23.7093 11.7119C24.1127 11.5433 24.5833 11.5489 24.9979 11.4029C25.4125 11.2568 25.7935 11.0377 26.2193 10.9197C26.6395 10.8017 27.0205 10.5096 27.4519 10.4141C27.8777 10.3242 28.3203 10.2568 28.7573 10.195C29.1887 10.1276 29.6369 10.1388 30.074 10.0995C30.4998 10.0601 30.9256 10.0433 31.3458 10.0321C31.7716 10.0208 32.1974 9.93093 32.6176 9.94217C33.0434 9.95341 33.4692 10.0321 33.8894 10.0658C34.3152 10.0995 34.7186 10.268 35.1388 10.3298C35.559 10.3916 35.996 10.3467 36.4106 10.4309C36.8252 10.5152 37.1838 10.8354 37.5872 10.9478C37.9962 11.0546 38.4668 10.9478 38.8702 11.077C38.9655 11.1107 39.0663 11.1557 39.1672 11.2062C39.705 11.4815 40.3325 11.3074 40.7023 10.8298C40.7303 10.7905 40.7695 10.7512 40.8088 10.7062C41.229 10.2849 41.313 10.3748 41.7276 9.95341C42.1422 9.53767 42.1422 9.53205 42.5568 9.11069C42.977 8.68933 42.9322 8.65001 43.3524 8.23427C43.7726 7.81291 43.8791 7.91966 44.2937 7.4983C44.3609 7.43088 44.4225 7.38032 44.4785 7.32975C44.8539 7.02076 44.7699 6.42524 44.3273 6.22861C44.1704 6.15557 44.0135 6.08816 43.8735 6.02636C43.4813 5.84658 43.1115 5.62185 42.7137 5.45893C42.3159 5.296 41.9125 5.1387 41.5091 4.99263C41.1057 4.85217 40.6407 4.89712 40.2261 4.77352C39.8171 4.64992 39.4249 4.46453 39.0103 4.35778C38.5957 4.25104 38.1923 4.08811 37.7665 4.00384C37.3463 3.91957 36.9037 3.96452 36.4779 3.8971C36.0521 3.82968 35.6543 3.60496 35.2229 3.5544C34.797 3.50945 34.3712 3.39709 33.9398 3.369C33.514 3.34091 33.0826 3.39147 32.6624 3.38585C32.2366 3.37462 31.8052 3.31282 31.385 3.32405C30.9592 3.33529 30.5446 3.57687 30.1244 3.60496C29.6986 3.63305 29.2728 3.57687 28.8526 3.62743C28.4268 3.67799 28.029 3.84092 27.6088 3.90833C27.1885 3.97575 26.7571 3.94766 26.3425 4.03193C25.9223 4.1162 25.5189 4.23418 25.1043 4.33531C24.6897 4.44205 24.3031 4.60498 23.8941 4.72858C23.4852 4.85218 23.0705 4.93083 22.6728 5.0769C22.2694 5.21735 21.8043 5.18926 21.4121 5.34657C21.02 5.50387 20.6222 5.68365 20.2412 5.86343C19.8546 6.04321 19.5072 6.31288 19.1318 6.5039C18.7565 6.70053 18.4763 7.07132 18.1065 7.27919C17.7368 7.49268 17.3782 7.70617 17.0196 7.93089C16.661 8.15561 16.3081 8.38034 15.9607 8.62192C15.6133 8.8635 15.266 9.09945 14.9242 9.35789C14.588 9.61632 14.1622 9.76239 13.8373 10.0321C13.5123 10.3073 13.277 10.6781 12.9632 10.9703C12.6495 11.2568 12.2013 11.4029 11.8987 11.7063C11.5962 12.0096 11.288 12.3074 11.0023 12.622C10.7165 12.9366 10.4252 13.2568 10.1507 13.5827C9.87614 13.9085 9.75848 14.358 9.50076 14.7007C9.24303 15.0378 8.87325 15.2962 8.63233 15.6502C8.39141 15.9985 8.20653 16.3917 7.98242 16.7513C7.75831 17.1109 7.61824 17.5266 7.40534 17.8974C7.18683 18.285 7.00194 18.6895 6.78904 19.0828C6.59855 19.4367 6.34082 19.757 6.17274 20.1222C5.99905 20.5098 5.98785 20.9649 5.83097 21.3638C5.6741 21.757 5.49481 22.1391 5.35474 22.5436C5.21467 22.9424 5.11382 23.3526 4.99056 23.7627C4.8673 24.1672 4.66561 24.5492 4.55916 24.965C4.45831 25.3751 4.42469 25.8021 4.34065 26.2178C4.25661 26.6335 4.06612 27.0268 3.99888 27.4482C3.93165 27.8695 3.8308 28.2853 3.78038 28.7066C3.72995 29.128 3.78598 29.5606 3.75797 29.9875C3.72995 30.4089 3.6123 30.8302 3.60109 31.2572C3.58989 31.6786 3.57868 32.1112 3.58428 32.5382C3.59549 32.9595 3.65151 33.3865 3.67953 33.8135C3.70754 34.246 3.66832 34.6899 3.71315 35.1169C3.75797 35.5494 3.88123 35.9708 3.94846 36.3978C4.01569 36.8248 4.08853 37.2517 4.17817 37.6787C4.26221 38.1057 4.28462 38.5439 4.39107 38.9653C4.49752 39.3866 4.72164 39.7743 4.8449 40.19C4.96255 40.5833 5.13624 40.9653 5.2763 41.3529C5.41637 41.7406 5.53963 42.1395 5.73012 42.5047C5.94863 42.9204 5.887 43.4653 6.0831 43.8923C6.26238 44.2856 6.63776 44.589 6.83386 44.971C7.02995 45.353 7.19243 45.7575 7.41094 46.1339C7.58462 46.4373 7.77512 46.7351 7.96561 47.0328C8.20093 47.4036 8.60432 47.9935 8.86205 48.3531C8.92368 48.4374 8.9853 48.5272 9.05254 48.6284C9.44473 49.1958 9.3943 49.9711 8.91247 50.4599C8.90687 50.4655 8.90126 50.4711 8.90126 50.4711C8.44744 50.9262 8.40822 50.8868 7.9544 51.3419C7.50058 51.797 7.48378 51.7801 7.02996 52.2352C6.57614 52.6903 6.55933 52.6734 6.10551 53.1285C5.65169 53.5835 5.73573 53.6678 5.28191 54.1229C4.82809 54.5779 4.68802 54.4375 4.2342 54.8925C3.78038 55.3476 3.93725 55.5049 3.48343 55.9544C3.02961 56.4094 3.06323 56.4431 2.60941 56.8982C2.15559 57.3533 2.00992 57.2072 1.5561 57.6623C1.10228 58.1173 1.07426 58.0892 0.620443 58.5443C0.149814 59.0162 0.401935 58.7466 -0.107913 59.2466C-0.444076 59.5724 -0.612157 60.2803 -0.287199 60.6118C0.155416 61.0556 0.267471 61.1399 0.698881 61.5781C1.13029 62.0107 1.1471 61.9938 1.57851 62.4264C2.00992 62.859 2.03793 62.8309 2.46934 63.2635C2.89515 63.6905 2.81671 63.5107 3.24252 63.9321C3.55067 64.2467 4.48072 64.3928 4.78327 64.0725C5.29311 63.5332 4.95695 63.8366 5.43878 63.359C5.89821 62.8983 5.90941 62.9152 6.36323 62.4545C6.82266 61.9994 6.63216 61.8084 7.09158 61.3534C7.5454 60.8983 7.70789 61.0556 8.16171 60.6005C8.61553 60.1455 8.63233 60.1567 9.09175 59.7016C9.54558 59.2466 9.57359 59.2747 10.033 58.814C10.4868 58.3589 10.4588 58.3308 10.9126 57.8701C11.3665 57.4151 11.2264 57.269 11.6802 56.8139C12.134 56.3589 12.3077 56.533 12.7615 56.078C13.2154 55.6229 13.0921 55.4993 13.5459 55.0442C13.9997 54.5892 14.1062 54.6903 14.56 54.2352C15.0138 53.7802 15.0082 53.7689 15.4621 53.3139C15.9159 52.8588 15.8486 52.7858 16.3025 52.3307C16.7563 51.8756 16.8179 51.9374 17.2717 51.4767C17.7256 51.0217 17.7312 51.0273 18.185 50.5666C18.6388 50.1115 18.5604 50.0273 19.0142 49.5722C19.468 49.1171 19.5016 49.1452 19.9554 48.6902C20.4093 48.2351 20.3868 48.2126 20.8407 47.7576C21.2945 47.3025 21.3225 47.3306 21.7763 46.8755C22.2301 46.4205 22.1853 46.3755 22.6391 45.9205C23.093 45.4654 23.0593 45.4317 23.5132 44.9766C23.967 44.5215 23.939 44.4935 24.3928 44.0384C24.8466 43.5833 24.8578 43.5889 25.3116 43.1339C25.7655 42.6788 25.8271 42.7406 26.2809 42.2855C26.7347 41.8305 26.7347 41.8305 27.1885 41.3754C27.6424 40.9203 27.5583 40.8361 28.0121 40.381C28.466 39.9259 28.6284 40.0889 29.0823 39.6338C29.5361 39.1787 29.3792 39.0214 29.833 38.5664C30.2869 38.1113 30.3485 38.1731 30.8079 37.718C31.2617 37.263 31.2337 37.2349 31.6875 36.7798C32.1414 36.3247 32.2646 36.4483 32.7184 35.9933C33.1723 35.5382 33.0826 35.4483 33.5364 34.9933C33.9903 34.5382 34.0015 34.5494 34.4497 34.0944C34.9035 33.6393 34.9483 33.6842 35.4021 33.2348C35.856 32.7797 35.7439 32.6674 36.1977 32.2179C36.6515 31.7629 36.7356 31.8471 37.1894 31.3921C37.6432 30.937 37.6152 30.9089 38.069 30.4538C38.5229 29.9988 38.5621 30.0381 39.0159 29.583C39.4697 29.128 39.4641 29.1167 39.9179 28.6617C40.3717 28.2066 40.3605 28.1954 40.8144 27.7403C41.2682 27.2852 41.3018 27.3189 41.7612 26.8639C42.215 26.4088 42.075 26.2684 42.5288 25.8077C42.9826 25.3526 43.1451 25.5155 43.5989 25.0605C44.0527 24.6054 44.0359 24.5885 44.4898 24.1335C44.9436 23.6784 44.91 23.6447 45.3638 23.1896C45.8176 22.7346 45.7392 22.6559 46.193 22.2009C46.6468 21.7458 46.7028 21.802 47.1566 21.3469C47.6105 20.8918 47.6161 20.8918 48.0699 20.4368C48.1371 20.3694 48.2156 20.2851 48.3052 20.2008C48.9943 19.5042 50.1597 19.6221 50.6752 20.4536C50.6752 20.4592 50.6808 20.4592 50.6808 20.4649C50.9049 20.8244 51.0281 21.2458 51.2298 21.6222C51.4315 21.9986 51.7509 22.3132 51.9302 22.7009C52.1095 23.0885 52.1319 23.5436 52.2887 23.9425C52.4456 24.3357 52.6529 24.7121 52.7874 25.1166C52.9218 25.5211 52.9947 25.9425 53.1067 26.3526C53.2132 26.7627 53.3084 27.1785 53.3981 27.5942C53.4821 28.01 53.4709 28.4426 53.5269 28.8639C53.5886 29.2853 53.751 29.6898 53.7903 30.1168C53.8239 30.5381 53.7118 30.9707 53.723 31.3977C53.7342 31.819 53.9976 32.246 53.9808 32.6786C53.9696 33.1 53.8575 33.5269 53.8183 33.9539C53.7791 34.3921 53.667 34.8247 53.5998 35.2573C53.5325 35.6955 53.3925 36.1113 53.2972 36.5382C53.2076 36.9708 53.3252 37.454 53.2076 37.8753C53.0899 38.3023 52.7201 38.645 52.5745 39.0608C52.4288 39.4765 52.2383 39.8641 52.0702 40.2687C51.9022 40.6732 51.8237 41.117 51.6332 41.5103C51.4371 41.9035 51.1962 42.2687 50.9777 42.6507C50.7592 43.0328 50.6247 43.4653 50.3894 43.8305C50.1485 44.2013 49.9804 44.6171 49.7171 44.971C49.4538 45.3249 49.0616 45.5721 48.7758 45.9092C48.4957 46.2463 48.2156 46.5834 47.913 46.9036C47.6105 47.2239 47.2743 47.5048 46.9549 47.8025C46.6356 48.1059 46.4171 48.516 46.0809 48.8025C45.7448 49.0834 45.2741 49.1958 44.9212 49.4542C44.5682 49.7127 44.3553 50.179 43.9911 50.4205C43.6269 50.6621 43.2347 50.8756 42.8538 51.0947C42.4728 51.3138 41.9909 51.3419 41.5987 51.5329C41.2066 51.7239 40.8928 52.1116 40.4894 52.2801C40.086 52.4487 39.5818 52.37 39.1672 52.5161C38.7526 52.6622 38.4108 53.0386 37.985 53.1566C37.5648 53.2745 37.1222 53.3588 36.6964 53.4543C36.2706 53.5442 35.8111 53.5049 35.3741 53.5723C34.9707 53.6341 34.5561 53.6229 34.1415 53.651C33.7101 53.6847 33.2843 53.7577 32.8529 53.7689C32.4327 53.7802 32.0125 53.9487 31.5979 53.9375C31.1833 53.9262 30.7687 53.8251 30.3597 53.7914C29.9451 53.7577 29.5417 53.6566 29.1383 53.6004C28.7293 53.5442 28.3483 53.3476 27.9449 53.2689C27.5415 53.1903 27.1213 53.1846 26.7235 53.0835C26.3257 52.9824 25.8831 53.0217 25.4909 52.8981C25.3565 52.8532 25.2388 52.8139 25.1211 52.7689C24.5441 52.5554 23.8941 52.7015 23.4571 53.1341L23.4459 53.1453C23.0257 53.5667 23.0089 53.5498 22.5943 53.9712C22.1741 54.3925 22.3422 54.5555 21.922 54.9768C21.5018 55.3982 21.3673 55.2633 20.9527 55.6847C20.5325 56.1061 20.695 56.269 20.2748 56.6903L20.2244 56.7409C19.8378 57.1229 19.9554 57.769 20.4485 57.9937L20.4597 57.9994C20.8407 58.1735 21.216 58.3758 21.6082 58.5331C22.0004 58.6904 22.387 58.8702 22.7848 59.005C23.1826 59.1455 23.6364 59.1061 24.0398 59.2297C24.4432 59.3477 24.8018 59.6286 25.2108 59.7297C25.6198 59.8309 26.0568 59.7971 26.4714 59.8814C26.8804 59.9657 27.3006 60.0106 27.7152 60.0724C28.1298 60.1342 28.5276 60.3477 28.9478 60.3927C29.3624 60.4376 29.7994 60.314 30.2196 60.3421C30.6454 60.3702 31.0656 60.4488 31.4858 60.4545C31.9116 60.4657 32.3374 60.5556 32.7633 60.5444C33.1891 60.5331 33.6205 60.5781 34.0463 60.55C34.4721 60.5219 34.8867 60.3646 35.3069 60.3196C35.7327 60.2691 36.1641 60.2803 36.5787 60.2129C36.9989 60.1455 37.4135 60.0163 37.8225 59.932C38.2371 59.8477 38.6573 59.7578 39.0663 59.6567C39.4809 59.55 39.8843 59.4151 40.2877 59.2915C40.6967 59.1679 41.0609 58.9263 41.4587 58.7859C41.8621 58.6454 42.2935 58.5893 42.6857 58.4263C43.0779 58.269 43.5149 58.196 43.9015 58.0162C44.2881 57.8364 44.5962 57.4937 44.9716 57.3027C45.347 57.1061 45.728 56.9151 46.0921 56.7072C46.4619 56.4937 46.9213 56.4319 47.2799 56.2072C47.6385 55.9825 47.8346 55.5049 48.1819 55.2633C48.5293 55.0218 48.9271 54.8476 49.2633 54.5892C49.5994 54.3307 50.0084 54.1622 50.3334 53.8869C50.6583 53.6116 50.9609 53.3082 51.2747 53.0217C51.5884 52.7352 51.7845 52.3251 52.0814 52.0273C52.384 51.7239 52.7033 51.4543 52.9947 51.1397C53.2804 50.8251 53.6782 50.6116 53.9528 50.2801C54.2273 49.9542 54.3001 49.4711 54.5578 49.134C54.8156 48.7969 55.1181 48.4992 55.359 48.1452C55.5999 47.7969 55.8577 47.4598 56.0874 47.1003C56.3115 46.7407 56.6533 46.4486 56.8662 46.0778C57.0735 45.707 57.3312 45.3586 57.5217 44.9766C57.7122 44.6002 57.869 44.1957 58.0483 43.808C58.2164 43.4429 58.2276 43.0103 58.3621 42.6282C58.5134 42.2069 58.6814 41.7912 58.8271 41.3698C58.9672 40.9709 59.1633 40.5889 59.2865 40.1788C59.4098 39.7743 59.6339 39.3922 59.7404 38.9765C59.8468 38.5664 59.9757 38.1506 60.0597 37.7349C60.1438 37.3191 59.9533 36.8528 60.0205 36.4315C60.0877 36.0101 60.3791 35.6225 60.4295 35.2011C60.4799 34.7798 60.3847 34.3416 60.4127 33.9146C60.4407 33.4932 60.5303 33.0719 60.5415 32.6449C60.5528 32.2235 60.5864 31.7909 60.5808 31.364C60.5696 30.9426 60.3455 30.5269 60.3174 30.0999C60.2894 29.6729 60.5191 29.2179 60.4743 28.7965C60.4295 28.3695 60.3342 27.9425 60.267 27.5212C60.1998 27.0942 60.0429 26.6897 59.9533 26.2684C59.8692 25.847 59.8356 25.4144 59.7348 24.9987C59.6283 24.5829 59.4714 24.1784 59.3482 23.7683C59.2249 23.3582 59.068 22.9593 58.9224 22.5548C58.7823 22.1503 58.5302 21.7907 58.3733 21.3918C58.2108 20.993 58.0091 20.6222 57.8298 20.2345C57.6505 19.8469 57.4993 19.448 57.3032 19.066C57.1071 18.6839 57.0511 18.2289 56.8381 17.8581C56.6252 17.4873 56.4235 17.1052 56.1994 16.7401C55.9697 16.3805 55.5775 16.1277 55.331 15.7738C55.2974 15.7232 55.247 15.6558 55.1909 15.5771C54.6867 14.858 54.7651 13.8805 55.387 13.2568L55.3983 13.2456C55.8521 12.7905 55.8072 12.7456 56.2611 12.2905C56.7149 11.8355 56.7821 11.9029 57.2359 11.4478C57.6898 10.9928 57.6674 10.9703 58.1212 10.5152C58.575 10.0601 58.5974 10.0826 59.0512 9.62755C59.505 9.17249 59.3818 9.04889 59.8356 8.59383C60.2894 8.13876 60.3623 8.2118 60.8161 7.75673C61.2699 7.30166 61.2531 7.28481 61.7069 6.83536C62.1607 6.3803 62.0935 6.31288 62.5473 5.85781C63.0236 5.38028 62.7714 5.69489 63.2925 5.17802C63.6006 4.86903 63.6286 4.07126 63.3205 3.76226C62.9115 3.32405 62.9451 3.39147 62.5249 2.97011Z" fill="#AC9D97"/>
</svg>
